<svg xmlns="http://www.w3.org/2000/svg" viewBox="0 0 48 48"><defs><style>.cls-1{fill:#4caf50;}.cls-2{fill:#fff;}</style></defs><title>Ballot</title><g id="Circle"><circle class="cls-1" cx="24" cy="24" r="16"/></g><g id="Icon"><path class="cls-2" d="M29.33,24.89h-.6L27,26.67h1.7l1.57,1.78H17.78l1.58-1.78h1.82L19.4,24.89h-.73L16,27.56v3.55a1.78,1.78,0,0,0,1.77,1.78H30.22A1.78,1.78,0,0,0,32,31.11V27.56Zm.89,6.22H17.78v-.89H30.22Zm-6.81-4.42a.91.91,0,0,0,1.26,0L30.32,21a.88.88,0,0,0,0-1.25l-4.4-4.4a.86.86,0,0,0-1.24,0L19,21a.91.91,0,0,0,0,1.26Zm1.89-9.44,3.14,3.15L24,24.8,20.9,21.65Z"/></g></svg>