<svg xmlns="http://www.w3.org/2000/svg" viewBox="0 0 48 48"><defs><style>.cls-1{fill:#2196f3;}.cls-2{fill:#fff;}</style></defs><title>Lock</title><g id="Circle"><circle class="cls-1" cx="24" cy="24" r="16"/></g><g id="Icon"><path class="cls-2" d="M29,21.08h-.83V19.42a4.17,4.17,0,0,0-8.34,0v1.66H19a1.67,1.67,0,0,0-1.67,1.67v8.33A1.67,1.67,0,0,0,19,32.75H29a1.67,1.67,0,0,0,1.67-1.67V22.75A1.67,1.67,0,0,0,29,21.08Zm-7.5-1.66a2.5,2.5,0,0,1,5,0v1.66h-5ZM29,31.08H19V22.75H29Zm-5-2.5a1.67,1.67,0,1,0-1.67-1.66A1.67,1.67,0,0,0,24,28.58Z"/></g></svg>